<mxfile host="app.diagrams.net" agent="Mozilla/5.0 (Windows NT 10.0; Win64; x64) AppleWebKit/537.36 (KHTML, like Gecko) Chrome/135.0.0.0 Safari/537.36" version="26.2.14">
  <diagram name="Sayfa -1" id="xSNr79x4Tpk4nXBcuwWG">
    <mxGraphModel dx="974" dy="420" grid="1" gridSize="10" guides="1" tooltips="1" connect="1" arrows="1" fold="1" page="1" pageScale="1" pageWidth="827" pageHeight="1169" math="0" shadow="0">
      <root>
        <mxCell id="0" />
        <mxCell id="1" parent="0" />
        <mxCell id="xJU09WL2dgdVKUeDreAP-10" style="edgeStyle=orthogonalEdgeStyle;rounded=0;orthogonalLoop=1;jettySize=auto;html=1;" edge="1" parent="1">
          <mxGeometry relative="1" as="geometry">
            <mxPoint x="420" y="90" as="targetPoint" />
            <mxPoint x="420" y="90" as="sourcePoint" />
          </mxGeometry>
        </mxCell>
        <mxCell id="xJU09WL2dgdVKUeDreAP-11" style="edgeStyle=orthogonalEdgeStyle;rounded=0;orthogonalLoop=1;jettySize=auto;html=1;exitX=0.5;exitY=0;exitDx=0;exitDy=0;exitPerimeter=0;entryX=0;entryY=0;entryDx=0;entryDy=0;" edge="1" parent="1" source="xJU09WL2dgdVKUeDreAP-3" target="xJU09WL2dgdVKUeDreAP-4">
          <mxGeometry relative="1" as="geometry" />
        </mxCell>
        <mxCell id="xJU09WL2dgdVKUeDreAP-12" style="edgeStyle=orthogonalEdgeStyle;rounded=0;orthogonalLoop=1;jettySize=auto;html=1;exitX=0.75;exitY=0.1;exitDx=0;exitDy=0;exitPerimeter=0;entryX=0;entryY=0.5;entryDx=0;entryDy=0;" edge="1" parent="1" source="xJU09WL2dgdVKUeDreAP-3" target="xJU09WL2dgdVKUeDreAP-5">
          <mxGeometry relative="1" as="geometry" />
        </mxCell>
        <mxCell id="xJU09WL2dgdVKUeDreAP-13" style="edgeStyle=orthogonalEdgeStyle;rounded=0;orthogonalLoop=1;jettySize=auto;html=1;exitX=0.5;exitY=0.5;exitDx=0;exitDy=0;exitPerimeter=0;entryX=0;entryY=0.5;entryDx=0;entryDy=0;" edge="1" parent="1" source="xJU09WL2dgdVKUeDreAP-3" target="xJU09WL2dgdVKUeDreAP-6">
          <mxGeometry relative="1" as="geometry">
            <Array as="points">
              <mxPoint x="265" y="130" />
              <mxPoint x="351" y="130" />
              <mxPoint x="351" y="195" />
            </Array>
          </mxGeometry>
        </mxCell>
        <mxCell id="xJU09WL2dgdVKUeDreAP-14" style="edgeStyle=orthogonalEdgeStyle;rounded=0;orthogonalLoop=1;jettySize=auto;html=1;exitX=1;exitY=1;exitDx=0;exitDy=0;exitPerimeter=0;entryX=0;entryY=0.5;entryDx=0;entryDy=0;" edge="1" parent="1" source="xJU09WL2dgdVKUeDreAP-3" target="xJU09WL2dgdVKUeDreAP-7">
          <mxGeometry relative="1" as="geometry" />
        </mxCell>
        <mxCell id="xJU09WL2dgdVKUeDreAP-15" style="edgeStyle=orthogonalEdgeStyle;rounded=0;orthogonalLoop=1;jettySize=auto;html=1;exitX=0;exitY=1;exitDx=0;exitDy=0;exitPerimeter=0;entryX=0;entryY=0.5;entryDx=0;entryDy=0;" edge="1" parent="1" source="xJU09WL2dgdVKUeDreAP-3" target="xJU09WL2dgdVKUeDreAP-8">
          <mxGeometry relative="1" as="geometry" />
        </mxCell>
        <mxCell id="xJU09WL2dgdVKUeDreAP-17" style="edgeStyle=orthogonalEdgeStyle;rounded=0;orthogonalLoop=1;jettySize=auto;html=1;exitX=0;exitY=0.3333333333333333;exitDx=0;exitDy=0;exitPerimeter=0;entryX=0;entryY=0.5;entryDx=0;entryDy=0;" edge="1" parent="1" source="xJU09WL2dgdVKUeDreAP-3" target="xJU09WL2dgdVKUeDreAP-16">
          <mxGeometry relative="1" as="geometry" />
        </mxCell>
        <mxCell id="xJU09WL2dgdVKUeDreAP-3" value="kullanıcı&lt;div&gt;&lt;br&gt;&lt;/div&gt;" style="shape=umlActor;verticalLabelPosition=bottom;verticalAlign=top;html=1;outlineConnect=0;fillColor=#0000CC;" vertex="1" parent="1">
          <mxGeometry x="250" y="90" width="30" height="60" as="geometry" />
        </mxCell>
        <mxCell id="xJU09WL2dgdVKUeDreAP-4" value="Ürün arama" style="ellipse;whiteSpace=wrap;html=1;" vertex="1" parent="1">
          <mxGeometry x="422.5" y="50" width="97.5" height="50" as="geometry" />
        </mxCell>
        <mxCell id="xJU09WL2dgdVKUeDreAP-5" value="Sipariş" style="ellipse;whiteSpace=wrap;html=1;" vertex="1" parent="1">
          <mxGeometry x="424" y="110" width="96" height="50" as="geometry" />
        </mxCell>
        <mxCell id="xJU09WL2dgdVKUeDreAP-6" value="İşletmeyi Puanlama" style="ellipse;whiteSpace=wrap;html=1;" vertex="1" parent="1">
          <mxGeometry x="422.75" y="170" width="97.25" height="50" as="geometry" />
        </mxCell>
        <mxCell id="xJU09WL2dgdVKUeDreAP-7" value="Yol Tarifi Alma" style="ellipse;whiteSpace=wrap;html=1;" vertex="1" parent="1">
          <mxGeometry x="423.75" y="240" width="96.25" height="50" as="geometry" />
        </mxCell>
        <mxCell id="xJU09WL2dgdVKUeDreAP-8" value="Ürün Detayı Görüntüleme" style="ellipse;whiteSpace=wrap;html=1;" vertex="1" parent="1">
          <mxGeometry x="424" y="300" width="106" height="50" as="geometry" />
        </mxCell>
        <mxCell id="xJU09WL2dgdVKUeDreAP-16" value="Ürün hakkında mesaj gönderme" style="ellipse;whiteSpace=wrap;html=1;" vertex="1" parent="1">
          <mxGeometry x="410" y="350" width="110" height="60" as="geometry" />
        </mxCell>
      </root>
    </mxGraphModel>
  </diagram>
</mxfile>
